# xmcd
#
# Track frame offsets:
#	150
#	12917
#	26492
#	40097
#	52605
#	65810
#	78702
#	96885
#	116780
#	143827
#	164740
#	172190
#
# Disc length: 2527 seconds
#
# Revision: 0
# Processed by: cddbd v1.5.2PL0 Copyright (c) Steve Scherf et al.
# Submitted via: EasyCDDAExtractor 16.0.3.2
#
DISCID=a409dd0c
DTITLE=Various Artist - Blues from the soul
DYEAR=1900
DGENRE=Blues
TTITLE0=Bob and Earl - Harlem Shuffle
TTITLE1=Muddy Waters - Got My Mojo Workin
TTITLE2=Eddie Floyd - Knock On Wood
TTITLE3=Ray Charles - Rocking Chair Blues
TTITLE4=Ben E. King - Spanish Harlem
TTITLE5=Jimmy Reed - Shame Shame Shame
TTITLE6=Clarence Carter - Easy
TTITLE7=Little Walter/Otis Rush - Goin' Down Slow
TTITLE8=Rufus Thomas - Walking The Dog
TTITLE9=Buddy Guy/Junior Wells - Just To Be With You
TTITLE10=Maurice Williams - Stay
TTITLE11=John Lee Hooker - Blues Before Sunrise
EXTD=
EXTT0=
EXTT1=
EXTT2=
EXTT3=
EXTT4=
EXTT5=
EXTT6=
EXTT7=
EXTT8=
EXTT9=
EXTT10=
EXTT11=
PLAYORDER=
